<?xml version="1.0" encoding="UTF-8" standalone="no"?>
<!DOCTYPE svg PUBLIC "-//W3C//DTD SVG 1.0//EN" "http://www.w3.org/TR/2001/REC-SVG-20010904/DTD/svg10.dtd">
<!-- Generated by Microsoft Visio 11.0, SVG Export, v1.0 RequestProcessing.svg Page-1 -->
<svg xmlns="http://www.w3.org/2000/svg" xmlns:v="http://schemas.microsoft.com/visio/2003/SVGExtensions/" width="6.90999in"
		height="7.51969in" viewBox="0 0 497.519 541.417" xml:space="preserve" color-interpolation-filters="sRGB" class="st9">
	<title>ReqeustProcessing</title>
	<v:documentProperties v:langID="2057" v:metric="true" v:viewMarkup="false"/>

	<style type="text/css">
	<![CDATA[
		.st1 {fill:#ffffff;stroke:#000000;stroke-linecap:round;stroke-linejoin:round;stroke-width:0.24}
		.st2 {fill:#000000;font-family:Lucida Sans Unicode;font-size:0.666664em}
		.st3 {marker-end:url(#mrkr4-12);stroke:#000000;stroke-linecap:round;stroke-linejoin:round;stroke-width:0.24}
		.st4 {fill:#000000;fill-opacity:1;stroke:#000000;stroke-opacity:1;stroke-width:0.08695652173913}
		.st5 {fill:#ffffff;stroke:none;stroke-linecap:butt;stroke-width:7.2}
		.st6 {font-size:1em}
		.st7 {marker-end:url(#mrkr4-92);stroke:#000000;stroke-linecap:round;stroke-linejoin:round;stroke-width:0.24}
		.st8 {stroke:#000000;stroke-linecap:round;stroke-linejoin:round;stroke-width:0.72}
		.st9 {fill:none;fill-rule:evenodd;font-size:12;overflow:visible;stroke-linecap:square;stroke-miterlimit:3}
	]]>
	</style>

	<defs id="Markers">
		<g id="lend4">
			<path d="M 2 1 L 0 0 L 2 -1 L 2 1 " style="stroke:none"/>
		</g>
		<marker id="mrkr4-12" class="st4" v:arrowType="4" v:arrowSize="2" v:setback="23" refX="-23" orient="auto"
				markerUnits="strokeWidth">
			<use xlink:href="#lend4" transform="scale(-11.5,-11.5) "/>
		</marker>
		<marker id="mrkr4-92" class="st4" v:arrowType="4" v:arrowSize="2" v:setback="0" refX="-0" orient="auto"
				markerUnits="strokeWidth">
			<use xlink:href="#lend4" transform="scale(-11.5,-11.5) "/>
		</marker>
	</defs>
	<g v:mID="0" v:index="1" v:groupContext="foregroundPage">
		<v:userDefs>
			<v:ud v:nameU="SchemeName" v:val="VT4(Black &#38; White)"/>
		</v:userDefs>
		<title>Page-1</title>
		<v:pageProperties v:drawingScale="0.0393701" v:pageScale="0.0393701" v:drawingUnits="24" v:shadowOffsetX="8.50394"
				v:shadowOffsetY="-8.50394"/>
		<v:layer v:name="Flowchart" v:index="0"/>
		<v:layer v:name="Connector" v:index="1"/>
		<g id="shape2-1" v:mID="2" v:groupContext="shape" v:layerMember="0" transform="translate(120.712,-457.795)">
			<title>Decision</title>
			<desc>Request class?</desc>
			<v:custProps>
				<v:cp v:nameU="Cost" v:lbl="Cost" v:prompt="Enter the cost associated with this process." v:type="7" v:format="@"
						v:langID="2057"/>
				<v:cp v:nameU="Duration" v:lbl="Duration" v:prompt="Enter the duration of this step." v:type="2" v:langID="2057"/>
				<v:cp v:nameU="Resources" v:lbl="Resources" v:prompt="Enter the number of people required to complete this task."
						v:langID="2057"/>
			</v:custProps>
			<v:textBlock v:margins="rect(2,2,2,2)" v:tabSpace="42.5197"/>
			<v:textRect cx="56.6929" cy="520.157" width="94.49" height="31.8898"/>
			<path d="M0 520.16 L56.69 498.9 L113.39 520.16 L56.69 541.42 L0 520.16 Z" class="st1"/>
			<text x="28.73" y="522.56" class="st2" v:langID="2057"><v:paragraph v:horizAlign="1"/><v:tabList/>Request class?</text>		</g>
		<g id="shape3-4" v:mID="3" v:groupContext="shape" v:layerMember="0" transform="translate(297.878,-464.882)">
			<title>Terminator</title>
			<desc>Fatal error</desc>
			<v:custProps>
				<v:cp v:nameU="Cost" v:lbl="Cost" v:prompt="Enter the cost associated with this process." v:type="7" v:format="@"
						v:langID="2057"/>
				<v:cp v:nameU="Duration" v:lbl="Duration" v:prompt="Enter the duration of this step." v:type="2" v:langID="2057"/>
				<v:cp v:nameU="Resources" v:lbl="Resources" v:prompt="Enter the number of people required to complete this task."
						v:langID="2057"/>
			</v:custProps>
			<v:textBlock v:margins="rect(2,2,2,2)" v:tabSpace="42.5197"/>
			<v:textRect cx="35.4331" cy="527.244" width="70.87" height="28.3465"/>
			<path d="M14.17 541.42 L56.69 541.42 A14.1732 14.1732 -180 0 0 56.69 513.07 L14.17 513.07 A14.1732 14.1732 -180 1 0 14.17
						 541.42 Z" class="st1"/>
			<text x="15.35" y="529.64" class="st2" v:langID="2057"><v:paragraph v:horizAlign="1"/><v:tabList/>Fatal error</text>		</g>
		<g id="shape4-7" v:mID="4" v:groupContext="shape" v:layerMember="1" transform="translate(234.098,-479.055)">
			<title>Line-curve connector</title>
			<desc>no</desc>
			<v:textBlock v:margins="rect(4,4,4,4)" v:tabSpace="42.5197"/>
			<v:textRect cx="31.8898" cy="541.417" width="40" height="17.6036"/>
			<path d="M0 541.42 L58.26 541.42 L58.26 541.42" class="st3"/>
			<rect v:rectContext="textBkgnd" x="25.3098" y="536.618" width="12.4099" height="9.59985" class="st5"/>
			<text x="25.68" y="543.82" class="st2" v:langID="2057"><v:paragraph v:horizAlign="1"/><v:tabList/> no  </text>		</g>
		<g id="shape5-15" v:mID="5" v:groupContext="shape" v:layerMember="0" transform="translate(0.24,-398.268)">
			<title>Decision.5</title>
			<desc>Subclass of YDRequest?</desc>
			<v:custProps>
				<v:cp v:nameU="Cost" v:lbl="Cost" v:prompt="Enter the cost associated with this process." v:type="7" v:format="@"
						v:langID="2057"/>
				<v:cp v:nameU="Duration" v:lbl="Duration" v:prompt="Enter the duration of this step." v:type="2" v:langID="2057"/>
				<v:cp v:nameU="Resources" v:lbl="Resources" v:prompt="Enter the number of people required to complete this task."
						v:langID="2057"/>
			</v:custProps>
			<v:textBlock v:margins="rect(2,2,2,2)" v:tabSpace="42.5197"/>
			<v:textRect cx="42.5197" cy="520.157" width="70.87" height="31.8898"/>
			<path d="M0 520.16 L42.52 498.9 L85.04 520.16 L42.52 541.42 L0 520.16 Z" class="st1"/>
			<text x="20.67" y="517.76" class="st2" v:langID="2057"><v:paragraph v:horizAlign="1"/><v:tabList/>Subclass of  <tspan
						x="19.81" dy="1.2em" class="st6">YDRequest</tspan>?</text>		</g>
		<g id="shape6-19" v:mID="6" v:groupContext="shape" v:layerMember="0" transform="translate(0.24,-464.882)">
			<title>Process.6</title>
			<desc>Create class instance</desc>
			<v:custProps>
				<v:cp v:nameU="Cost" v:lbl="Cost" v:prompt="Enter the cost associated with this process." v:type="7" v:format="@"
						v:langID="2057"/>
				<v:cp v:nameU="Duration" v:lbl="Duration" v:prompt="Enter the duration of this step." v:type="2" v:langID="2057"/>
				<v:cp v:nameU="Resources" v:lbl="Resources" v:prompt="Enter the number of people required to complete this task."
						v:langID="2057"/>
			</v:custProps>
			<v:textBlock v:margins="rect(2,2,2,2)" v:tabSpace="42.5197"/>
			<v:textRect cx="42.5197" cy="527.244" width="85.04" height="28.3465"/>
			<rect x="0" y="513.071" width="85.0394" height="28.3465" class="st1"/>
			<text x="19.2" y="524.84" class="st2" v:langID="2057"><v:paragraph v:horizAlign="1"/><v:tabList/>Create class <tspan
						x="26.38" dy="1.2em" class="st6">instance</tspan></text>		</g>
		<g id="shape7-23" v:mID="7" v:groupContext="shape" v:layerMember="1" transform="translate(120.712,-479.055) scale(-1,1)">
			<title>Line-curve connector.7</title>
			<desc>yes</desc>
			<v:textBlock v:margins="rect(4,4,4,4)" v:tabSpace="42.5197"/>
			<v:textRect cx="17.7165" cy="541.417" width="40" height="17.6036"/>
			<path d="M0 541.42 L29.91 541.42 L29.91 541.42" class="st3"/>
			<rect v:rectContext="textBkgnd" x="11.7341" y="536.618" width="12.7148" height="9.59985" class="st5"/>
			<text x="-24.07" y="543.82" transform="scale(-1,1)" class="st2" v:langID="2057"><v:paragraph v:horizAlign="1"/><v:tabList/>yes</text>		</g>
		<g id="shape8-30" v:mID="8" v:groupContext="shape" v:layerMember="1"
				transform="translate(-498.658,76.5354) rotate(-90) scale(-1,1)">
			<title>Line-curve connector.8</title>
			<v:textBlock v:margins="rect(4,4,4,4)" v:tabSpace="42.5197"/>
			<path d="M0 541.42 L18.57 541.42 L18.57 541.42" class="st3"/>
		</g>
		<g id="shape9-35" v:mID="9" v:groupContext="shape" v:layerMember="0" transform="translate(120.712,-398.268)">
			<title>Decision.9</title>
			<desc>Class initialized?</desc>
			<v:custProps>
				<v:cp v:nameU="Cost" v:lbl="Cost" v:prompt="Enter the cost associated with this process." v:type="7" v:format="@"
						v:langID="2057"/>
				<v:cp v:nameU="Duration" v:lbl="Duration" v:prompt="Enter the duration of this step." v:type="2" v:langID="2057"/>
				<v:cp v:nameU="Resources" v:lbl="Resources" v:prompt="Enter the number of people required to complete this task."
						v:langID="2057"/>
			</v:custProps>
			<v:textBlock v:margins="rect(2,2,2,2)" v:tabSpace="42.5197"/>
			<v:textRect cx="56.6929" cy="520.157" width="94.49" height="31.8898"/>
			<path d="M0 520.16 L56.69 498.9 L113.39 520.16 L56.69 541.42 L0 520.16 Z" class="st1"/>
			<text x="46.49" y="517.76" class="st2" v:langID="2057"><v:paragraph v:horizAlign="1"/><v:tabList/>Class<v:newlineChar/><tspan
						x="36" dy="1.2em" class="st6">initialized</tspan>?</text>		</g>
		<g id="shape10-39" v:mID="10" v:groupContext="shape" v:layerMember="1" transform="translate(85.2794,-419.528)">
			<title>Line-curve connector.10</title>
			<desc>yes</desc>
			<v:textBlock v:margins="rect(4,4,4,4)" v:tabSpace="42.5197"/>
			<v:textRect cx="17.7165" cy="541.417" width="40" height="17.6036"/>
			<path d="M0 541.42 L29.91 541.42 L29.91 541.42" class="st3"/>
			<rect v:rectContext="textBkgnd" x="9.71855" y="536.618" width="15.246" height="9.59985" class="st5"/>
			<text x="10.09" y="543.82" class="st2" v:langID="2057"><v:paragraph v:horizAlign="1"/><v:tabList/> yes  </text>		</g>
		<g id="shape11-46" v:mID="11" v:groupContext="shape" v:layerMember="0" transform="translate(7.32661,-334.488)">
			<title>Terminator.11</title>
			<desc>Fatal error</desc>
			<v:custProps>
				<v:cp v:nameU="Cost" v:lbl="Cost" v:prompt="Enter the cost associated with this process." v:type="7" v:format="@"
						v:langID="2057"/>
				<v:cp v:nameU="Duration" v:lbl="Duration" v:prompt="Enter the duration of this step." v:type="2" v:langID="2057"/>
				<v:cp v:nameU="Resources" v:lbl="Resources" v:prompt="Enter the number of people required to complete this task."
						v:langID="2057"/>
			</v:custProps>
			<v:textBlock v:margins="rect(2,2,2,2)" v:tabSpace="42.5197"/>
			<v:textRect cx="35.4331" cy="527.244" width="70.87" height="28.3465"/>
			<path d="M14.17 541.42 L56.69 541.42 A14.1732 14.1732 -180 0 0 56.69 513.07 L14.17 513.07 A14.1732 14.1732 -180 1 0 14.17
						 541.42 Z" class="st1"/>
			<text x="15.35" y="529.64" class="st2" v:langID="2057"><v:paragraph v:horizAlign="1"/><v:tabList/>Fatal error</text>		</g>
		<g id="shape12-49" v:mID="12" v:groupContext="shape" v:layerMember="1"
				transform="translate(-498.658,143.15) rotate(-90) scale(-1,1)">
			<title>Line-curve connector.12</title>
			<desc>no</desc>
			<v:textBlock v:margins="rect(4,4,4,4)" v:tabSpace="42.5197"/>
			<v:textRect cx="17.7165" cy="541.417" width="40" height="17.6036" transform="rotate(90)"/>
			<path d="M0 541.42 L29.91 541.42 L29.91 541.42" class="st3"/>
			<rect v:rectContext="textBkgnd" x="-545.982" y="12.9168" width="9.87863" height="9.59985" transform="rotate(-90)"
					class="st5"/>
			<text x="536.48" y="20.12" transform="rotate(-90) scale(-1,1)" class="st2" v:langID="2057"><v:paragraph
						v:horizAlign="1"/><v:tabList/>no</text>		</g>
		<g id="shape13-56" v:mID="13" v:groupContext="shape" v:layerMember="0" transform="translate(297.878,-405.354)">
			<title>Terminator.13</title>
			<desc>Fatal error</desc>
			<v:custProps>
				<v:cp v:nameU="Cost" v:lbl="Cost" v:prompt="Enter the cost associated with this process." v:type="7" v:format="@"
						v:langID="2057"/>
				<v:cp v:nameU="Duration" v:lbl="Duration" v:prompt="Enter the duration of this step." v:type="2" v:langID="2057"/>
				<v:cp v:nameU="Resources" v:lbl="Resources" v:prompt="Enter the number of people required to complete this task."
						v:langID="2057"/>
			</v:custProps>
			<v:textBlock v:margins="rect(2,2,2,2)" v:tabSpace="42.5197"/>
			<v:textRect cx="35.4331" cy="527.244" width="70.87" height="28.3465"/>
			<path d="M14.17 541.42 L56.69 541.42 A14.1732 14.1732 -180 0 0 56.69 513.07 L14.17 513.07 A14.1732 14.1732 -180 1 0 14.17
						 541.42 Z" class="st1"/>
			<text x="15.35" y="529.64" class="st2" v:langID="2057"><v:paragraph v:horizAlign="1"/><v:tabList/>Fatal error</text>		</g>
		<g id="shape14-59" v:mID="14" v:groupContext="shape" v:layerMember="1" transform="translate(234.098,-419.528)">
			<title>Line-curve connector.14</title>
			<desc>no</desc>
			<v:textBlock v:margins="rect(4,4,4,4)" v:tabSpace="42.5197"/>
			<v:textRect cx="31.8898" cy="541.417" width="40" height="17.6036"/>
			<path d="M0 541.42 L58.26 541.42 L58.26 541.42" class="st3"/>
			<rect v:rectContext="textBkgnd" x="25.3098" y="536.618" width="12.4099" height="9.59985" class="st5"/>
			<text x="25.68" y="543.82" class="st2" v:langID="2057"><v:paragraph v:horizAlign="1"/><v:tabList/> no  </text>		</g>
		<g id="shape15-66" v:mID="15" v:groupContext="shape" v:layerMember="1"
				transform="translate(-364.012,143.15) rotate(-90) scale(-1,1)">
			<title>Line-curve connector.15</title>
			<desc>yes</desc>
			<v:textBlock v:margins="rect(4,4,4,4)" v:tabSpace="42.5197"/>
			<v:textRect cx="17.7165" cy="541.417" width="40" height="17.6036" transform="rotate(90)"/>
			<path d="M0 541.42 L29.91 541.42 L29.91 541.42" class="st3"/>
			<rect v:rectContext="textBkgnd" x="-547.4" y="12.9168" width="12.7148" height="9.59985" transform="rotate(-90)"
					class="st5"/>
			<text x="535.06" y="20.12" transform="rotate(-90) scale(-1,1)" class="st2" v:langID="2057"><v:paragraph
						v:horizAlign="1"/><v:tabList/>yes</text>		</g>
		<g id="shape16-73" v:mID="16" v:groupContext="shape" v:layerMember="0" transform="translate(120.712,-320.315)">
			<title>Decision.16</title>
			<desc>Requires authentication?</desc>
			<v:custProps>
				<v:cp v:nameU="Cost" v:lbl="Cost" v:prompt="Enter the cost associated with this process." v:type="7" v:format="@"
						v:langID="2057"/>
				<v:cp v:nameU="Duration" v:lbl="Duration" v:prompt="Enter the duration of this step." v:type="2" v:langID="2057"/>
				<v:cp v:nameU="Resources" v:lbl="Resources" v:prompt="Enter the number of people required to complete this task."
						v:langID="2057"/>
			</v:custProps>
			<v:textBlock v:margins="rect(2,2,2,2)" v:tabSpace="42.5197"/>
			<v:textRect cx="56.6929" cy="520.157" width="94.49" height="31.8898"/>
			<path d="M0 520.16 L56.69 498.9 L113.39 520.16 L56.69 541.42 L0 520.16 Z" class="st1"/>
			<text x="39.88" y="517.76" class="st2" v:langID="2057"><v:paragraph v:horizAlign="1"/><v:tabList/>Requires <tspan
						x="27.13" dy="1.2em" class="st6">authentication</tspan>?</text>		</g>
		<g id="shape17-77" v:mID="17" v:groupContext="shape" v:layerMember="0" transform="translate(120.712,-242.362)">
			<title>Decision.17</title>
			<desc>isAuthenticated()</desc>
			<v:custProps>
				<v:cp v:nameU="Cost" v:lbl="Cost" v:prompt="Enter the cost associated with this process." v:type="7" v:format="@"
						v:langID="2057"/>
				<v:cp v:nameU="Duration" v:lbl="Duration" v:prompt="Enter the duration of this step." v:type="2" v:langID="2057"/>
				<v:cp v:nameU="Resources" v:lbl="Resources" v:prompt="Enter the number of people required to complete this task."
						v:langID="2057"/>
			</v:custProps>
			<v:textBlock v:margins="rect(2,2,2,2)" v:tabSpace="42.5197"/>
			<v:textRect cx="56.6929" cy="520.157" width="94.49" height="31.8898"/>
			<path d="M0 520.16 L56.69 498.9 L113.39 520.16 L56.69 541.42 L0 520.16 Z" class="st1"/>
			<text x="23.82" y="522.56" class="st2" v:langID="2057"><v:paragraph v:horizAlign="1"/><v:tabList/>isAuthenticated()</text>		</g>
		<g id="shape18-80" v:mID="18" v:groupContext="shape" v:layerMember="1"
				transform="translate(-364.012,221.102) rotate(-90) scale(-1,1)">
			<title>Line-curve connector.18</title>
			<desc>yes</desc>
			<v:textBlock v:margins="rect(4,4,4,4)" v:tabSpace="42.5197"/>
			<v:textRect cx="17.7165" cy="541.417" width="40" height="17.6036" transform="rotate(90)"/>
			<path d="M0 541.42 L29.91 541.42 L29.91 541.42" class="st3"/>
			<rect v:rectContext="textBkgnd" x="-548.665" y="12.9168" width="15.246" height="9.59985" transform="rotate(-90)"
					class="st5"/>
			<text x="533.79" y="20.12" transform="rotate(-90) scale(-1,1)" class="st2" v:langID="2057"><v:paragraph
						v:horizAlign="1"/><v:tabList/> yes  </text>		</g>
		<g id="shape19-87" v:mID="19" v:groupContext="shape" v:layerMember="1"
				transform="translate(-420.705,199.843) rotate(-90) scale(-1,1)">
			<title>Line-curve connector.19</title>
			<desc>no</desc>
			<v:textBlock v:margins="rect(4,4,4,4)" v:tabSpace="42.5197"/>
			<v:textRect cx="96.4919" cy="490.213" width="40" height="17.6036" transform="rotate(90)"/>
			<path d="M0 541.42 L2.42 538.76 L4.84 536.17 L7.27 533.65 L9.7 531.2 L12.14 528.83 L14.59 526.52 L17.05 524.29 L19.51
						 522.13 L21.98 520.03 L24.45 518.01 L26.94 516.06 L29.42 514.18 L31.92 512.38 L34.42 510.64 L36.93 508.97
						 L39.45 507.38 L41.97 505.85 L44.5 504.4 L47.03 503.01 L49.58 501.7 L52.13 500.46 L54.68 499.29 L57.25 498.19
						 L59.81 497.16 L62.39 496.21 L64.97 495.32 L67.56 494.5 L70.16 493.76 L72.76 493.08 L75.37 492.48 L77.99
						 491.95 L80.61 491.49 L83.24 491.1 L85.88 490.78 L88.52 490.53 L91.17 490.35 L93.83 490.25 L96.49 490.21
						 L99.16 490.25 L101.84 490.35 L104.52 490.53 L107.21 490.78 L109.91 491.1 L112.61 491.49 L115.32 491.95 L118.04
						 492.48 L120.77 493.08 L123.5 493.76 L126.23 494.5 L128.98 495.32 L131.73 496.21 L134.49 497.16 L137.25 498.19
						 L140.02 499.29 L142.8 500.46 L145.58 501.7 L148.37 503.01 L151.17 504.4 L153.98 505.85 L156.79 507.38 L159.6
						 508.97 L162.43 510.64 L165.26 512.38 L168.1 514.18 L170.94 516.06 L173.79 518.01 L176.65 520.03 L179.52
						 522.13 L182.39 524.29 L185.27 526.52 L188.15 528.83 L191.04 531.2 L193.94 533.65 L196.85 536.17 L199.76
						 538.76 L202.68 541.42" class="st7"/>
			<rect v:rectContext="textBkgnd" x="-496.043" y="91.6922" width="12.4099" height="9.59985" transform="rotate(-90)"
					class="st5"/>
			<text x="484.01" y="98.89" transform="rotate(-90) scale(-1,1)" class="st2" v:langID="2057"><v:paragraph
						v:horizAlign="1"/><v:tabList/> no  </text>		</g>
		<g id="shape20-95" v:mID="20" v:groupContext="shape" v:layerMember="0" transform="translate(120.712,-185.669)">
			<title>Process.20</title>
			<desc>authenticationSucceeded()</desc>
			<v:custProps>
				<v:cp v:nameU="Cost" v:lbl="Cost" v:prompt="Enter the cost associated with this process." v:type="7" v:format="@"
						v:langID="2057"/>
				<v:cp v:nameU="Duration" v:lbl="Duration" v:prompt="Enter the duration of this step." v:type="2" v:langID="2057"/>
				<v:cp v:nameU="Resources" v:lbl="Resources" v:prompt="Enter the number of people required to complete this task."
						v:langID="2057"/>
			</v:custProps>
			<v:textBlock v:margins="rect(2,2,2,2)" v:tabSpace="42.5197"/>
			<v:textRect cx="56.6929" cy="528.661" width="113.39" height="25.5118"/>
			<rect x="0" y="515.906" width="113.386" height="25.5118" class="st1"/>
			<text x="5.76" y="531.06" class="st2" v:langID="2057"><v:paragraph v:horizAlign="1"/><v:tabList/>authenticationSucceeded()</text>		</g>
		<g id="shape21-98" v:mID="21" v:groupContext="shape" v:layerMember="0" transform="translate(290.791,-250.866)">
			<title>Process.21</title>
			<desc>authenticationFailed()</desc>
			<v:custProps>
				<v:cp v:nameU="Cost" v:lbl="Cost" v:prompt="Enter the cost associated with this process." v:type="7" v:format="@"
						v:langID="2057"/>
				<v:cp v:nameU="Duration" v:lbl="Duration" v:prompt="Enter the duration of this step." v:type="2" v:langID="2057"/>
				<v:cp v:nameU="Resources" v:lbl="Resources" v:prompt="Enter the number of people required to complete this task."
						v:langID="2057"/>
			</v:custProps>
			<v:textBlock v:margins="rect(2,2,2,2)" v:tabSpace="42.5197"/>
			<v:textRect cx="49.6063" cy="528.661" width="99.22" height="25.5118"/>
			<rect x="0" y="515.906" width="99.2126" height="25.5118" class="st1"/>
			<text x="7.7" y="531.06" class="st2" v:langID="2057"><v:paragraph v:horizAlign="1"/><v:tabList/>authenticationFailed()</text>		</g>
		<g id="shape22-101" v:mID="22" v:groupContext="shape" v:layerMember="1" transform="translate(234.098,-263.622)">
			<title>Line-curve connector.22</title>
			<desc>no</desc>
			<v:textBlock v:margins="rect(4,4,4,4)" v:tabSpace="42.5197"/>
			<v:textRect cx="28.3465" cy="541.417" width="40" height="17.6036"/>
			<path d="M0 541.42 L51.17 541.42 L51.17 541.42" class="st3"/>
			<rect v:rectContext="textBkgnd" x="21.7665" y="536.618" width="12.4099" height="9.59985" class="st5"/>
			<text x="22.14" y="543.82" class="st2" v:langID="2057"><v:paragraph v:horizAlign="1"/><v:tabList/> no  </text>		</g>
		<g id="shape23-108" v:mID="23" v:groupContext="shape" v:layerMember="1"
				transform="translate(-364.012,299.055) rotate(-90) scale(-1,1)">
			<title>Line-curve connector.23</title>
			<desc>yes</desc>
			<v:textBlock v:margins="rect(4,4,4,4)" v:tabSpace="42.5197"/>
			<v:textRect cx="15.5906" cy="541.417" width="40" height="17.6036" transform="rotate(90)"/>
			<path d="M0 541.42 L25.66 541.42 L25.66 541.42" class="st3"/>
			<rect v:rectContext="textBkgnd" x="-548.665" y="10.7908" width="15.246" height="9.59985" transform="rotate(-90)"
					class="st5"/>
			<text x="533.79" y="17.99" transform="rotate(-90) scale(-1,1)" class="st2" v:langID="2057"><v:paragraph
						v:horizAlign="1"/><v:tabList/> yes  </text>		</g>
		<g id="shape24-115" v:mID="24" v:groupContext="shape" v:layerMember="0" transform="translate(120.712,-117.638)">
			<title>Decision.24</title>
			<desc>isActionAllowed()</desc>
			<v:custProps>
				<v:cp v:nameU="Cost" v:lbl="Cost" v:prompt="Enter the cost associated with this process." v:type="7" v:format="@"
						v:langID="2057"/>
				<v:cp v:nameU="Duration" v:lbl="Duration" v:prompt="Enter the duration of this step." v:type="2" v:langID="2057"/>
				<v:cp v:nameU="Resources" v:lbl="Resources" v:prompt="Enter the number of people required to complete this task."
						v:langID="2057"/>
			</v:custProps>
			<v:textBlock v:margins="rect(2,2,2,2)" v:tabSpace="42.5197"/>
			<v:textRect cx="56.6929" cy="520.157" width="94.49" height="31.8898"/>
			<path d="M0 520.16 L56.69 498.9 L113.39 520.16 L56.69 541.42 L0 520.16 Z" class="st1"/>
			<text x="23.14" y="522.56" class="st2" v:langID="2057"><v:paragraph v:horizAlign="1"/><v:tabList/>isActionAllowed()</text>		</g>
		<g id="shape25-118" v:mID="25" v:groupContext="shape" v:layerMember="1"
				transform="translate(-364.012,355.748) rotate(-90) scale(-1,1)">
			<title>Line-curve connector.25</title>
			<v:textBlock v:margins="rect(4,4,4,4)" v:tabSpace="42.5197"/>
			<path d="M0 541.42 L19.99 541.42 L19.99 541.42" class="st3"/>
		</g>
		<g id="shape26-123" v:mID="26" v:groupContext="shape" v:layerMember="0" transform="translate(290.791,-126.142)">
			<title>Process.26</title>
			<desc>errorActionNotAllowed()</desc>
			<v:custProps>
				<v:cp v:nameU="Cost" v:lbl="Cost" v:prompt="Enter the cost associated with this process." v:type="7" v:format="@"
						v:langID="2057"/>
				<v:cp v:nameU="Duration" v:lbl="Duration" v:prompt="Enter the duration of this step." v:type="2" v:langID="2057"/>
				<v:cp v:nameU="Resources" v:lbl="Resources" v:prompt="Enter the number of people required to complete this task."
						v:langID="2057"/>
			</v:custProps>
			<v:textBlock v:margins="rect(2,2,2,2)" v:tabSpace="42.5197"/>
			<v:textRect cx="49.6063" cy="528.661" width="99.22" height="25.5118"/>
			<rect x="0" y="515.906" width="99.2126" height="25.5118" class="st1"/>
			<text x="2.74" y="531.06" class="st2" v:langID="2057"><v:paragraph v:horizAlign="1"/><v:tabList/>errorActionNotAllowed()</text>		</g>
		<g id="shape27-126" v:mID="27" v:groupContext="shape" v:layerMember="1" transform="translate(234.098,-138.898)">
			<title>Line-curve connector.27</title>
			<desc>no</desc>
			<v:textBlock v:margins="rect(4,4,4,4)" v:tabSpace="42.5197"/>
			<v:textRect cx="28.3465" cy="541.417" width="40" height="17.6036"/>
			<path d="M0 541.42 L51.17 541.42 L51.17 541.42" class="st3"/>
			<rect v:rectContext="textBkgnd" x="21.7665" y="536.618" width="12.4099" height="9.59985" class="st5"/>
			<text x="22.14" y="543.82" class="st2" v:langID="2057"><v:paragraph v:horizAlign="1"/><v:tabList/> no  </text>		</g>
		<g id="shape28-133" v:mID="28" v:groupContext="shape" v:layerMember="0" transform="translate(120.712,-56.6929)">
			<title>Process.28</title>
			<desc>process()</desc>
			<v:custProps>
				<v:cp v:nameU="Cost" v:lbl="Cost" v:prompt="Enter the cost associated with this process." v:type="7" v:format="@"
						v:langID="2057"/>
				<v:cp v:nameU="Duration" v:lbl="Duration" v:prompt="Enter the duration of this step." v:type="2" v:langID="2057"/>
				<v:cp v:nameU="Resources" v:lbl="Resources" v:prompt="Enter the number of people required to complete this task."
						v:langID="2057"/>
			</v:custProps>
			<v:textBlock v:margins="rect(2,2,2,2)" v:tabSpace="42.5197"/>
			<v:textRect cx="56.6929" cy="528.661" width="113.39" height="25.5118"/>
			<rect x="0" y="515.906" width="113.386" height="25.5118" class="st1"/>
			<text x="39.13" y="531.06" class="st2" v:langID="2057"><v:paragraph v:horizAlign="1"/><v:tabList/>process()</text>		</g>
		<g id="shape29-136" v:mID="29" v:groupContext="shape" v:layerMember="1"
				transform="translate(-364.012,423.78) rotate(-90) scale(-1,1)">
			<title>Line-curve connector.29</title>
			<desc>yes</desc>
			<v:textBlock v:margins="rect(4,4,4,4)" v:tabSpace="42.5197"/>
			<v:textRect cx="17.7165" cy="541.417" width="40" height="17.6036" transform="rotate(90)"/>
			<path d="M0 541.42 L29.91 541.42 L29.91 541.42" class="st3"/>
			<rect v:rectContext="textBkgnd" x="-547.4" y="12.9168" width="12.7148" height="9.59985" transform="rotate(-90)"
					class="st5"/>
			<text x="535.06" y="20.12" transform="rotate(-90) scale(-1,1)" class="st2" v:langID="2057"><v:paragraph
						v:horizAlign="1"/><v:tabList/>yes</text>		</g>
		<g id="shape31-143" v:mID="31" v:groupContext="shape" v:layerMember="1"
				transform="translate(-364.012,18.4252) rotate(-90) scale(-1,1)">
			<title>Line-curve connector.31</title>
			<v:textBlock v:margins="rect(4,4,4,4)" v:tabSpace="42.5197"/>
			<path d="M0 541.42 L17.16 541.42 L17.16 541.42" class="st3"/>
		</g>
		<g id="shape32-148" v:mID="32" v:groupContext="shape" v:layerMember="1"
				transform="translate(718.798,479.519) rotate(89.4491)">
			<title>Line-curve connector.32</title>
			<v:textBlock v:margins="rect(4,4,4,4)" v:tabSpace="42.5197"/>
			<path d="M0 541.42 L31.33 541.42 L31.33 541.42" class="st3"/>
		</g>
		<g id="shape33-153" v:mID="33" v:groupContext="shape" transform="translate(149.059,-527.244)">
			<title>Sheet.33</title>
			<desc>start</desc>
			<v:textBlock v:margins="rect(2,2,2,2)" v:tabSpace="42.5197"/>
			<v:textRect cx="28.3465" cy="534.331" width="56.7" height="14.1732"/>
			<text x="19.47" y="536.73" class="st2" v:langID="2057"><v:paragraph v:horizAlign="1"/><v:tabList/>start</text>		</g>
		<g id="shape34-155" v:mID="34" v:groupContext="shape" transform="translate(149.413,0)">
			<title>Sheet.34</title>
			<desc>finish</desc>
			<v:textBlock v:margins="rect(2,2,2,2)" v:tabSpace="42.5197"/>
			<v:textRect cx="28.3465" cy="534.331" width="56.7" height="14.1732"/>
			<text x="17.56" y="536.73" class="st2" v:langID="2057"><v:paragraph v:horizAlign="1"/><v:tabList/>finish</text>		</g>
		<g id="shape35-157" v:mID="35" v:groupContext="shape" v:layerMember="1"
				transform="translate(158.213,-86.7713) rotate(-25.3482) scale(-1,1)">
			<title>Line-curve connector.35</title>
			<v:textBlock v:margins="rect(4,4,4,4)" v:tabSpace="42.5197"/>
			<path d="M0 541.42 L-1.08 543.43 L-2.11 545.41 L-3.07 547.35 L-3.96 549.25 L-4.8 551.11 L-5.57 552.94 L-6.29 554.72 L-6.94
						 556.47 L-7.53 558.18 L-8.05 559.85 L-8.52 561.49 L-8.92 563.09 L-9.26 564.64 L-9.54 566.16 L-9.76 567.65
						 L-9.91 569.09 L-10.01 570.5 L-10.04 571.87 L-10.01 573.2 L-9.92 574.49 L-9.76 575.74 L-9.55 576.96 L-9.27
						 578.14 L-8.93 579.28 L-8.53 580.38 L-8.06 581.45 L-7.54 582.47 L-6.95 583.46 L-6.3 584.41 L-5.59 585.32
						 L-4.82 586.2 L-3.98 587.03 L-3.08 587.83 L-2.13 588.59 L-1.11 589.31 L-0.02 590 L1.12 590.65 L2.33 591.25
						 L3.6 591.82 L4.93 592.36 L6.32 592.85 L7.77 593.31 L9.29 593.72 L10.87 594.1 L12.51 594.45 L14.21 594.75
						 L15.97 595.02 L17.8 595.24 L19.68 595.44 L21.63 595.59 L23.64 595.7 L25.72 595.78 L27.85 595.82 L30.05 595.82
						 L32.31 595.78 L34.63 595.7 L37.01 595.59 L39.45 595.44 L41.96 595.24 L44.53 595.02 L47.16 594.75 L49.85
						 594.45 L52.6 594.1 L55.42 593.72 L58.3 593.31 L61.24 592.85 L64.24 592.36 L67.3 591.82 L70.43 591.25 L73.61
						 590.65 L76.86 590 L80.17 589.31 L83.55 588.59 L86.98 587.83 L90.48 587.03 L94.04 586.2 L97.66 585.32 L101.34
						 584.41 L105.08 583.46 L108.89 582.47 L112.76 581.45 L116.69 580.38 L120.68 579.28 L124.73 578.14 L128.85
						 576.96 L133.03 575.74 L137.27 574.49 L141.57 573.2 L145.93 571.87 L150.36 570.5 L154.84 569.09 L159.39 567.65
						 L164 566.16 L168.67 564.64 L173.41 563.09 L178.21 561.49 L183.06 559.85 L187.98 558.18 L192.97 556.47 L198.01
						 554.72 L203.12 552.94 L208.28 551.11 L213.51 549.25 L218.81 547.35 L224.16 545.41 L229.57 543.43 L235.05
						 541.42" class="st8"/>
		</g>
		<g id="shape37-160" v:mID="37" v:groupContext="shape" v:layerMember="1"
				transform="translate(-3.97431,-93.5724) rotate(-46.6922) scale(-1,1)">
			<title>Line-curve connector.37</title>
			<v:textBlock v:margins="rect(4,4,4,4)" v:tabSpace="42.5197"/>
			<path d="M0 541.42 L1.15 546.08 L2.31 550.68 L3.49 555.21 L4.69 559.66 L5.91 564.05 L7.15 568.36 L8.4 572.6 L9.68 576.78
						 L10.97 580.88 L12.27 584.91 L13.6 588.87 L14.94 592.76 L16.3 596.58 L17.68 600.33 L19.08 604 L20.5 607.61
						 L21.93 611.15 L23.38 614.61 L24.85 618.01 L26.34 621.33 L27.84 624.58 L29.37 627.76 L30.91 630.88 L32.46
						 633.92 L34.04 636.89 L35.64 639.79 L37.25 642.62 L38.88 645.37 L40.53 648.06 L42.19 650.68 L43.88 653.22
						 L45.58 655.7 L47.3 658.1 L49.04 660.44 L50.79 662.7 L52.56 664.89 L54.36 667.01 L56.17 669.06 L57.99 671.04
						 L59.84 672.95 L61.7 674.79 L63.58 676.56 L65.48 678.26 L67.4 679.88 L69.33 681.44 L71.28 682.93 L73.25 684.34
						 L75.24 685.68 L77.25 686.96 L79.27 688.16 L81.31 689.29 L83.37 690.35 L85.45 691.34 L87.55 692.26 L89.66
						 693.11 L91.79 693.89 L93.94 694.59 L96.11 695.23 L98.3 695.8 L100.5 696.29 L102.72 696.72 L104.96 697.07
						 L107.22 697.35 L109.49 697.56 L111.78 697.71 L114.09 697.78 L116.42 697.78 L118.77 697.71 L121.13 697.56
						 L123.52 697.35 L125.92 697.07 L128.33 696.72 L130.77 696.29 L133.22 695.8 L135.69 695.23 L138.18 694.59
						 L140.69 693.89 L143.22 693.11 L145.76 692.26 L148.32 691.34 L150.9 690.35 L153.5 689.29 L156.11 688.16 L158.75
						 686.96 L161.4 685.68 L164.07 684.34 L166.75 682.93 L169.46 681.44 L172.18 679.88 L174.92 678.26 L177.68
						 676.56 L180.45 674.79 L183.25 672.95 L186.06 671.04 L188.89 669.06 L191.74 667.01 L194.6 664.89 L197.49
						 662.7 L200.39 660.44 L203.31 658.1 L206.24 655.7 L209.2 653.22 L212.17 650.68 L215.16 648.06 L218.17 645.37
						 L221.2 642.62 L224.24 639.79 L227.31 636.89 L230.39 633.92 L233.48 630.88 L236.6 627.76 L239.74 624.58 L242.89
						 621.33 L246.06 618.01 L249.25 614.61 L252.45 611.15 L255.67 607.61 L258.92 604 L262.18 600.33 L265.45 596.58
						 L268.75 592.76 L272.06 588.87 L275.39 584.91 L278.74 580.88 L282.11 576.78 L285.49 572.6 L288.9 568.36 L292.32
						 564.05 L295.76 559.66 L299.21 555.21 L302.69 550.68 L306.18 546.08 L309.69 541.42" class="st8"/>
		</g>
		<g id="shape1-163" v:mID="1" v:groupContext="shape" v:layerMember="1"
				transform="translate(535.537,-17.3552) rotate(65.5277)">
			<title>Line-curve connector.1</title>
			<v:textBlock v:margins="rect(4,4,4,4)" v:tabSpace="42.5197"/>
			<path d="M0 541.42 L4.31 545.02 L8.59 548.55 L12.85 552.01 L17.09 555.4 L21.3 558.72 L25.49 561.98 L29.66 565.17 L33.8
						 568.28 L37.92 571.33 L42.02 574.32 L46.09 577.23 L50.14 580.07 L54.16 582.85 L58.16 585.56 L62.14 588.2
						 L66.1 590.77 L70.03 593.27 L73.93 595.7 L77.82 598.07 L81.68 600.36 L85.51 602.59 L89.33 604.75 L93.11 606.84
						 L96.88 608.86 L100.62 610.81 L104.34 612.7 L108.04 614.51 L111.71 616.26 L115.35 617.94 L118.98 619.55 L122.58
						 621.09 L126.16 622.57 L129.71 623.97 L133.24 625.31 L136.75 626.58 L140.23 627.78 L143.69 628.91 L147.12
						 629.97 L150.54 630.96 L153.93 631.89 L157.29 632.75 L160.63 633.53 L163.95 634.25 L167.24 634.91 L170.51
						 635.49 L173.76 636 L176.99 636.45 L180.19 636.82 L183.36 637.13 L186.51 637.37 L189.64 637.54 L192.75 637.65
						 L195.83 637.68 L198.89 637.65 L201.93 637.54 L204.94 637.37 L207.92 637.13 L210.89 636.82 L213.83 636.45
						 L216.75 636 L219.64 635.49 L222.51 634.91 L225.36 634.25 L228.18 633.53 L230.98 632.75 L233.75 631.89 L236.51
						 630.96 L239.24 629.97 L241.94 628.91 L244.62 627.78 L247.28 626.58 L249.91 625.31 L252.53 623.97 L255.11
						 622.57 L257.68 621.09 L260.22 619.55 L262.73 617.94 L265.23 616.26 L267.7 614.51 L270.14 612.7 L272.56 610.81
						 L274.96 608.86 L277.34 606.84 L279.69 604.75 L282.02 602.59 L284.32 600.36 L286.6 598.07 L288.86 595.7 L291.09
						 593.27 L293.3 590.77 L295.49 588.2 L297.65 585.56 L299.79 582.85 L301.91 580.07 L304 577.23 L306.07 574.32
						 L308.11 571.33 L310.14 568.28 L312.13 565.17 L314.11 561.98 L316.06 558.72 L317.99 555.4 L319.89 552.01
						 L321.77 548.55 L323.63 545.02 L325.46 541.42" class="st8"/>
		</g>
		<g id="shape30-166" v:mID="30" v:groupContext="shape" v:layerMember="1"
				transform="translate(-115.244,-120.779) rotate(-63.3711) scale(-1,1)">
			<title>Line-curve connector.30</title>
			<v:textBlock v:margins="rect(4,4,4,4)" v:tabSpace="42.5197"/>
			<path d="M0 541.42 L4.01 547.05 L8 552.61 L11.98 558.11 L15.94 563.52 L19.88 568.87 L23.81 574.15 L27.72 579.35 L31.61
						 584.48 L35.48 589.54 L39.34 594.53 L43.19 599.45 L47.01 604.29 L50.82 609.07 L54.61 613.77 L58.39 618.4
						 L62.15 622.96 L65.89 627.44 L69.62 631.86 L73.33 636.2 L77.02 640.47 L80.69 644.67 L84.35 648.8 L88 652.85
						 L91.62 656.84 L95.23 660.75 L98.82 664.59 L102.4 668.36 L105.96 672.05 L109.5 675.68 L113.02 679.23 L116.53
						 682.71 L120.03 686.12 L123.5 689.46 L126.96 692.72 L130.4 695.92 L133.83 699.04 L137.24 702.09 L140.63 705.07
						 L144 707.98 L147.36 710.81 L150.7 713.58 L154.03 716.27 L157.34 718.89 L160.63 721.43 L163.9 723.91 L167.16
						 726.32 L170.4 728.65 L173.63 730.91 L176.84 733.1 L180.03 735.22 L183.2 737.26 L186.36 739.24 L189.5 741.14
						 L192.63 742.97 L195.74 744.73 L198.83 746.41 L201.9 748.03 L204.96 749.57 L208 751.04 L211.03 752.44 L214.04
						 753.77 L217.03 755.03 L220 756.21 L222.96 757.32 L225.9 758.36 L228.83 759.33 L231.74 760.23 L234.63 761.06
						 L237.5 761.81 L240.36 762.49 L243.2 763.1 L246.02 763.64 L248.83 764.11 L251.62 764.5 L254.4 764.82 L257.16
						 765.08 L259.9 765.25 L262.62 765.36 L265.33 765.4 L268.02 765.36 L270.69 765.25 L273.35 765.08 L275.99 764.82
						 L278.62 764.5 L281.22 764.11 L283.82 763.64 L286.39 763.1 L288.95 762.49 L291.49 761.81 L294.01 761.06 L296.52
						 760.23 L299.01 759.33 L301.48 758.36 L303.94 757.32 L306.38 756.21 L308.81 755.03 L311.21 753.77 L313.6
						 752.44 L315.98 751.04 L318.34 749.57 L320.68 748.03 L323 746.41 L325.31 744.73 L327.6 742.97 L329.87 741.14
						 L332.13 739.24 L334.37 737.26 L336.59 735.22 L338.8 733.1 L340.99 730.91 L343.16 728.65 L345.32 726.32 L347.46
						 723.91 L349.58 721.43 L351.69 718.89 L353.78 716.27 L355.86 713.58 L357.91 710.81 L359.95 707.98 L361.98
						 705.07 L363.98 702.09 L365.97 699.04 L367.95 695.92 L369.9 692.72 L371.84 689.46 L373.77 686.12 L375.67
						 682.71 L377.56 679.23 L379.44 675.68 L381.29 672.05 L383.13 668.36 L384.96 664.59 L386.76 660.75 L388.55
						 656.84 L390.32 652.85 L392.08 648.8 L393.82 644.67 L395.54 640.47 L397.25 636.2 L398.94 631.86 L400.61 627.44
						 L402.27 622.96 L403.91 618.4 L405.53 613.77 L407.14 609.07 L408.73 604.29 L410.3 599.45 L411.86 594.53 L413.4
						 589.54 L414.92 584.48 L416.42 579.35 L417.91 574.15 L419.39 568.87 L420.84 563.52 L422.28 558.11 L423.7
						 552.61 L425.11 547.05 L426.5 541.42" class="st8"/>
		</g>
		<g id="shape36-169" v:mID="36" v:groupContext="shape" v:layerMember="1"
				transform="translate(-127.973,-153.055) rotate(-66.5545) scale(-1,1)">
			<title>Line-curve connector.36</title>
			<v:textBlock v:margins="rect(4,4,4,4)" v:tabSpace="42.5197"/>
			<path d="M0 541.42 L4.86 547.42 L9.7 553.35 L14.51 559.21 L19.29 565.01 L24.06 570.73 L28.79 576.38 L33.51 581.97 L38.2
						 587.48 L42.86 592.93 L47.51 598.31 L52.12 603.62 L56.72 608.85 L61.28 614.02 L65.83 619.12 L70.35 624.15
						 L74.84 629.11 L79.32 634 L83.76 638.83 L88.19 643.58 L92.59 648.26 L96.96 652.87 L101.31 657.42 L105.64
						 661.89 L109.94 666.3 L114.22 670.64 L118.47 674.9 L122.7 679.1 L126.9 683.23 L131.08 687.29 L135.24 691.28
						 L139.37 695.2 L143.48 699.05 L147.56 702.83 L151.62 706.54 L155.66 710.18 L159.67 713.75 L163.65 717.26
						 L167.62 720.69 L171.55 724.06 L175.47 727.35 L179.36 730.58 L183.22 733.74 L187.06 736.82 L190.88 739.84
						 L194.67 742.79 L198.44 745.67 L202.18 748.48 L205.9 751.22 L209.6 753.89 L213.27 756.49 L216.92 759.02 L220.54
						 761.49 L224.14 763.88 L227.71 766.2 L231.26 768.46 L234.79 770.64 L238.29 772.76 L241.76 774.81 L245.22
						 776.78 L248.64 778.69 L252.05 780.53 L255.43 782.3 L258.78 784 L262.12 785.63 L265.42 787.19 L268.71 788.68
						 L271.96 790.11 L275.2 791.46 L278.41 792.74 L281.59 793.96 L284.76 795.1 L287.89 796.18 L291.01 797.18 L294.09
						 798.12 L297.16 798.99 L300.2 799.78 L303.22 800.51 L306.21 801.17 L309.17 801.76 L312.12 802.28 L315.04
						 802.73 L317.93 803.11 L320.8 803.43 L323.65 803.67 L326.47 803.84 L329.27 803.95 L332.04 803.98 L334.79
						 803.95 L337.51 803.84 L340.22 803.67 L342.89 803.43 L345.54 803.11 L348.17 802.73 L350.78 802.28 L353.35
						 801.76 L355.91 801.17 L358.44 800.51 L360.95 799.78 L363.43 798.99 L365.89 798.12 L368.32 797.18 L370.73
						 796.18 L373.12 795.1 L375.48 793.96 L377.81 792.74 L380.13 791.46 L382.41 790.11 L384.68 788.68 L386.92
						 787.19 L389.13 785.63 L391.32 784 L393.49 782.3 L395.63 780.53 L397.75 778.69 L399.85 776.78 L401.92 774.81
						 L403.96 772.76 L405.98 770.64 L407.98 768.46 L409.95 766.2 L411.9 763.88 L413.82 761.49 L415.72 759.02 L417.6
						 756.49 L419.45 753.89 L421.28 751.22 L423.08 748.48 L424.86 745.67 L426.61 742.79 L428.35 739.84 L430.05
						 736.82 L431.73 733.74 L433.39 730.58 L435.02 727.35 L436.63 724.06 L438.22 720.69 L439.78 717.26 L441.31
						 713.75 L442.82 710.18 L444.31 706.54 L445.78 702.83 L447.21 699.05 L448.63 695.2 L450.02 691.28 L451.39
						 687.29 L452.73 683.23 L454.05 679.1 L455.34 674.9 L456.61 670.64 L457.85 666.3 L459.07 661.89 L460.27 657.42
						 L461.44 652.87 L462.59 648.26 L463.71 643.58 L464.81 638.83 L465.89 634 L466.94 629.11 L467.97 624.15 L468.97
						 619.12 L469.95 614.02 L470.9 608.85 L471.83 603.62 L472.74 598.31 L473.62 592.93 L474.47 587.48 L475.31
						 581.97 L476.11 576.38 L476.9 570.73 L477.66 565.01 L478.39 559.21 L479.1 553.35 L479.79 547.42 L480.45 541.42"
					class="st8"/>
		</g>
	</g>
</svg>
